<svg xmlns="http://www.w3.org/2000/svg" xmlns:xlink="http://www.w3.org/1999/xlink" viewBox="0,0,256,256" width="48px" height="48px" fill-rule="nonzero"><defs><linearGradient x1="6.495" y1="11.094" x2="17.505" y2="22.104" gradientUnits="userSpaceOnUse" id="color-1"><stop offset="0" stop-color="#ffffff" stop-opacity="0.6"></stop><stop offset="1" stop-color="#ffbdbd" stop-opacity="0.30196"></stop></linearGradient><linearGradient x1="2" y1="18" x2="22" y2="18" gradientUnits="userSpaceOnUse" id="color-2"><stop offset="0" stop-color="#ffffff" stop-opacity="0.6"></stop><stop offset="0.493" stop-color="#ffffff" stop-opacity="0"></stop><stop offset="0.997" stop-color="#ffbdbd" stop-opacity="0.30196"></stop></linearGradient><linearGradient x1="5.721" y1="5.771" x2="12.182" y2="12.233" gradientUnits="userSpaceOnUse" id="color-3"><stop offset="0" stop-color="#ffffff" stop-opacity="0.6"></stop><stop offset="1" stop-color="#ffbdbd" stop-opacity="0.30196"></stop></linearGradient><linearGradient x1="3" y1="8.001" x2="11" y2="8.001" gradientUnits="userSpaceOnUse" id="color-4"><stop offset="0" stop-color="#ffffff" stop-opacity="0.6"></stop><stop offset="0.493" stop-color="#ffffff" stop-opacity="0"></stop><stop offset="0.997" stop-color="#ffbdbd" stop-opacity="0.30196"></stop></linearGradient><linearGradient x1="11.143" y1="5.442" x2="19.057" y2="13.357" gradientUnits="userSpaceOnUse" id="color-5"><stop offset="0" stop-color="#ffffff" stop-opacity="0.6"></stop><stop offset="1" stop-color="#ffbdbd" stop-opacity="0.30196"></stop></linearGradient><linearGradient x1="13" y1="8.5" x2="20" y2="8.5" gradientUnits="userSpaceOnUse" id="color-6"><stop offset="0" stop-color="#ffffff" stop-opacity="0.6"></stop><stop offset="0.493" stop-color="#ffffff" stop-opacity="0"></stop><stop offset="0.997" stop-color="#ffbdbd" stop-opacity="0.30196"></stop></linearGradient><linearGradient x1="5.721" y1="5.771" x2="12.182" y2="12.233" gradientUnits="userSpaceOnUse" id="color-7"><stop offset="0" stop-color="#ffffff" stop-opacity="0.6"></stop><stop offset="1" stop-color="#ffbdbd" stop-opacity="0.30196"></stop></linearGradient><linearGradient x1="11.143" y1="5.442" x2="19.057" y2="13.357" gradientUnits="userSpaceOnUse" id="color-8"><stop offset="0" stop-color="#ffffff" stop-opacity="0.6"></stop><stop offset="1" stop-color="#ffbdbd" stop-opacity="0.30196"></stop></linearGradient></defs><g fill="none" fill-rule="nonzero" stroke="none" stroke-width="1" stroke-linecap="butt" stroke-linejoin="miter" stroke-miterlimit="10" stroke-dasharray="" stroke-dashoffset="0" font-family="none" font-weight="none" font-size="none" text-anchor="none" style="mix-blend-mode: normal"><g transform="scale(10.66667,10.66667)"><path d="M21.001,15h-18.002c-0.65,0 -1.113,0.609 -0.974,1.244c0.449,2.045 1.927,3.431 2.92,4.156c0.53,0.388 1.165,0.6 1.822,0.6h10.467c0.657,0 1.291,-0.212 1.821,-0.599c0.993,-0.726 2.471,-2.111 2.92,-4.156c0.14,-0.636 -0.323,-1.245 -0.974,-1.245z" fill="url(#color-1)"></path><path d="M21.001,15.5c0.204,0 0.327,0.115 0.382,0.183c0.101,0.126 0.139,0.292 0.103,0.454c-0.403,1.838 -1.706,3.113 -2.727,3.86c-0.45,0.329 -0.978,0.503 -1.526,0.503h-10.466c-0.549,0 -1.076,-0.174 -1.526,-0.503c-1.021,-0.747 -2.324,-2.022 -2.727,-3.86c-0.036,-0.163 0.002,-0.328 0.103,-0.454c0.055,-0.068 0.177,-0.183 0.382,-0.183h18.002M21.001,15h-18.002c-0.65,0 -1.113,0.609 -0.974,1.244c0.449,2.045 1.927,3.431 2.92,4.156c0.53,0.388 1.165,0.6 1.822,0.6h10.467c0.657,0 1.291,-0.212 1.821,-0.599c0.993,-0.726 2.471,-2.111 2.92,-4.156c0.14,-0.636 -0.323,-1.245 -0.974,-1.245z" fill="url(#color-2)"></path><g><path d="M10.011,2.009c-0.491,-0.057 -0.969,0.274 -1.085,0.766c-0.009,0.037 -0.925,3.744 -5.551,7.444c-0.222,0.178 -0.357,0.441 -0.373,0.726c-0.017,0.284 0.09,0.561 0.291,0.762c0.094,0.094 2.343,2.293 6.707,2.293c0.267,0 0.522,-0.107 0.711,-0.296c0.188,-0.19 0.292,-0.447 0.289,-0.713l-0.1,-10c-0.004,-0.507 -0.387,-0.927 -0.889,-0.982z" fill="url(#color-3)"></path><path d="M9.901,2.502c0.017,0 0.035,0.001 0.055,0.003c0.251,0.028 0.442,0.238 0.445,0.489l0.1,10.001c0.001,0.132 -0.051,0.262 -0.144,0.355c-0.095,0.096 -0.225,0.15 -0.357,0.15c-4.159,0 -6.266,-2.059 -6.353,-2.147c-0.101,-0.101 -0.154,-0.239 -0.145,-0.381c0.008,-0.142 0.076,-0.274 0.186,-0.363c4.752,-3.801 5.715,-7.68 5.724,-7.719c0.053,-0.221 0.263,-0.388 0.489,-0.388M9.901,2.002c-0.451,0 -0.868,0.317 -0.975,0.773c-0.009,0.037 -0.925,3.744 -5.551,7.444c-0.222,0.178 -0.357,0.441 -0.373,0.726c-0.017,0.284 0.09,0.561 0.291,0.762c0.094,0.094 2.343,2.293 6.707,2.293c0.267,0 0.522,-0.107 0.711,-0.296c0.188,-0.19 0.292,-0.447 0.289,-0.713l-0.1,-10c-0.005,-0.506 -0.388,-0.926 -0.89,-0.981c-0.036,-0.005 -0.073,-0.008 -0.109,-0.008z" fill="url(#color-4)"></path></g><g><path d="M14.515,3.143c-0.31,-0.186 -0.694,-0.19 -1.008,-0.013c-0.314,0.177 -0.507,0.51 -0.507,0.87v9c0,0.3 0.135,0.583 0.366,0.773c0.18,0.148 0.405,0.227 0.634,0.227c0.065,0 0.131,-0.006 0.196,-0.02l5,-1c0.467,-0.093 0.804,-0.503 0.804,-0.98c0,-5.503 -5.262,-8.723 -5.485,-8.857z" fill="url(#color-5)"></path><path d="M14,3.5c0.091,0 0.18,0.025 0.258,0.071c0.213,0.129 5.242,3.208 5.242,8.429c0,0.238 -0.169,0.444 -0.402,0.49l-5.001,1c-0.032,0.007 -0.064,0.01 -0.097,0.01c-0.116,0 -0.228,-0.04 -0.317,-0.113c-0.116,-0.096 -0.183,-0.237 -0.183,-0.387v-9c0,-0.18 0.097,-0.347 0.253,-0.435c0.075,-0.043 0.16,-0.065 0.247,-0.065M14,3c-0.17,0 -0.34,0.043 -0.493,0.13c-0.314,0.177 -0.507,0.51 -0.507,0.87v9c0,0.3 0.135,0.583 0.366,0.773c0.18,0.148 0.405,0.227 0.634,0.227c0.065,0 0.131,-0.006 0.196,-0.02l5,-1c0.467,-0.093 0.804,-0.503 0.804,-0.98c0,-5.503 -5.262,-8.723 -5.485,-8.857c-0.159,-0.095 -0.337,-0.143 -0.515,-0.143z" fill="url(#color-6)"></path></g><g><path d="M10.011,2.009c-0.491,-0.057 -0.969,0.274 -1.085,0.766c-0.009,0.037 -0.925,3.744 -5.551,7.444c-0.222,0.178 -0.357,0.441 -0.373,0.726c-0.017,0.284 0.09,0.561 0.291,0.762c0.094,0.094 2.343,2.293 6.707,2.293c0.267,0 0.522,-0.107 0.711,-0.296c0.188,-0.19 0.292,-0.447 0.289,-0.713l-0.1,-10c-0.004,-0.507 -0.387,-0.927 -0.889,-0.982z" fill="url(#color-7)"></path><g fill="url(#color-8)"><path d="M14.515,3.143c-0.31,-0.186 -0.694,-0.19 -1.008,-0.013c-0.314,0.177 -0.507,0.51 -0.507,0.87v9c0,0.3 0.135,0.583 0.366,0.773c0.18,0.148 0.405,0.227 0.634,0.227c0.065,0 0.131,-0.006 0.196,-0.02l5,-1c0.467,-0.093 0.804,-0.503 0.804,-0.98c0,-5.503 -5.262,-8.723 -5.485,-8.857z"></path></g></g></g></g></svg>