<svg xmlns="http://www.w3.org/2000/svg" xmlns:xlink="http://www.w3.org/1999/xlink" viewBox="0,0,256,256" width="48px" height="48px" fill-rule="nonzero"><defs><linearGradient x1="4.581" y1="3.577" x2="20.869" y2="19.865" gradientUnits="userSpaceOnUse" id="color-1"><stop offset="0" stop-color="#673a00"></stop><stop offset="1" stop-color="#ffffff" stop-opacity="0.30196"></stop></linearGradient><linearGradient x1="4.581" y1="3.577" x2="20.869" y2="19.865" gradientUnits="userSpaceOnUse" id="color-2"><stop offset="0" stop-color="#673a00"></stop><stop offset="0.493" stop-color="#ffffff" stop-opacity="0"></stop><stop offset="0.997" stop-color="#ffffff" stop-opacity="0.30196"></stop></linearGradient><linearGradient x1="5.54" y1="15.964" x2="12.213" y2="22.637" gradientUnits="userSpaceOnUse" id="color-3"><stop offset="0" stop-color="#ffffff" stop-opacity="0.70196"></stop><stop offset="0.519" stop-color="#ffffff" stop-opacity="0.45098"></stop><stop offset="1" stop-color="#ffffff" stop-opacity="0.54902"></stop></linearGradient><linearGradient x1="18.729" y1="9.549" x2="21.445" y2="12.265" gradientUnits="userSpaceOnUse" id="color-4"><stop offset="0" stop-color="#ffffff" stop-opacity="0.70196"></stop><stop offset="0.519" stop-color="#ffffff" stop-opacity="0.45098"></stop><stop offset="1" stop-color="#ffffff" stop-opacity="0.54902"></stop></linearGradient><linearGradient x1="9.914" y1="9.969" x2="16.443" y2="16.498" gradientUnits="userSpaceOnUse" id="color-5"><stop offset="0" stop-color="#ffffff" stop-opacity="0.70196"></stop><stop offset="0.519" stop-color="#ffffff" stop-opacity="0.45098"></stop><stop offset="1" stop-color="#ffffff" stop-opacity="0.54902"></stop></linearGradient><linearGradient x1="2.283" y1="7.229" x2="6.421" y2="11.368" gradientUnits="userSpaceOnUse" id="color-6"><stop offset="0" stop-color="#ffffff" stop-opacity="0.70196"></stop><stop offset="0.519" stop-color="#ffffff" stop-opacity="0.45098"></stop><stop offset="1" stop-color="#ffffff" stop-opacity="0.54902"></stop></linearGradient><linearGradient x1="9.638" y1="0.073" x2="14.787" y2="5.221" gradientUnits="userSpaceOnUse" id="color-7"><stop offset="0" stop-color="#ffffff" stop-opacity="0.70196"></stop><stop offset="0.519" stop-color="#ffffff" stop-opacity="0.45098"></stop><stop offset="1" stop-color="#ffffff" stop-opacity="0.54902"></stop></linearGradient><linearGradient x1="17.744" y1="18.83" x2="19.823" y2="20.91" gradientUnits="userSpaceOnUse" id="color-8"><stop offset="0" stop-color="#ffffff" stop-opacity="0.70196"></stop><stop offset="0.519" stop-color="#ffffff" stop-opacity="0.45098"></stop><stop offset="1" stop-color="#ffffff" stop-opacity="0.54902"></stop></linearGradient></defs><g fill="#673a00" fill-rule="nonzero" stroke="none" stroke-width="1" stroke-linecap="butt" stroke-linejoin="miter" stroke-miterlimit="10" stroke-dasharray="" stroke-dashoffset="0" font-family="none" font-weight="none" font-size="none" text-anchor="none" style="mix-blend-mode: normal"><path d="M0,256v-256h256v256z" id="shape"></path></g><g fill="none" fill-rule="nonzero" stroke="none" stroke-width="1" stroke-linecap="butt" stroke-linejoin="miter" stroke-miterlimit="10" stroke-dasharray="" stroke-dashoffset="0" font-family="none" font-weight="none" font-size="none" text-anchor="none" style="mix-blend-mode: normal"><g transform="scale(10.66667,10.66667)"><path d="M7.364,2.375l4.799,0.8c0.265,0.044 0.536,0.044 0.801,0l3.909,-0.652c1.055,-0.176 2.101,0.357 2.58,1.314l2.29,4.58c0.549,1.099 0.195,2.435 -0.828,3.117v0c-0.768,0.512 -1.18,1.414 -1.066,2.329l1.051,4.871c0.205,0.951 -0.428,1.879 -1.387,2.036l-6.494,1.063c-0.617,0.109 -1.253,-0.024 -1.775,-0.372l-1.878,-1.252c-0.232,-0.155 -0.49,-0.269 -0.761,-0.336l-2.704,-0.676c-0.605,-0.151 -1.13,-0.529 -1.464,-1.056l-1.978,-3.109c-0.614,-0.964 -0.476,-2.224 0.331,-3.032l1.281,-1.281c0.556,-0.556 0.81,-1.347 0.68,-2.123l-0.535,-3.212c-0.165,-0.987 0.291,-1.975 1.15,-2.49l0.344,-0.205c0.496,-0.298 1.083,-0.41 1.654,-0.314z" fill="url(#color-1)"></path><path d="M6.963,2.841v0c0.106,0 0.212,0.009 0.318,0.026l4.799,0.8c0.159,0.027 0.321,0.04 0.483,0.04c0.161,0 0.324,-0.013 0.483,-0.04l3.909,-0.652c0.107,-0.018 0.214,-0.026 0.319,-0.026c0.738,0 1.401,0.41 1.731,1.07l2.29,4.58c0.436,0.872 0.153,1.936 -0.658,2.477c-0.931,0.621 -1.424,1.697 -1.277,2.851l1.051,4.871c0.07,0.325 0.006,0.654 -0.181,0.929c-0.187,0.274 -0.47,0.455 -0.798,0.509l-6.5,1.064c-0.111,0.02 -0.224,0.029 -0.336,0.029c-0.384,0 -0.755,-0.112 -1.074,-0.325l-1.878,-1.252c-0.281,-0.187 -0.589,-0.324 -0.917,-0.405l-2.705,-0.677c-0.483,-0.121 -0.897,-0.419 -1.164,-0.839l-1.978,-3.109c-0.491,-0.771 -0.383,-1.762 0.264,-2.408l1.281,-1.281c0.669,-0.669 0.976,-1.626 0.82,-2.559l-0.535,-3.212c-0.132,-0.79 0.227,-1.567 0.914,-1.979l0.344,-0.206c0.3,-0.18 0.644,-0.276 0.995,-0.276M6.963,2.341c-0.439,0 -0.873,0.119 -1.253,0.347l-0.344,0.207c-0.858,0.515 -1.314,1.502 -1.15,2.49l0.535,3.212c0.129,0.776 -0.124,1.567 -0.68,2.123l-1.281,1.28c-0.807,0.807 -0.946,2.067 -0.333,3.031l1.978,3.109c0.335,0.526 0.859,0.904 1.464,1.056l2.704,0.676c0.271,0.068 0.528,0.182 0.761,0.336l1.878,1.252c0.403,0.269 0.874,0.409 1.351,0.409c0.141,0 0.283,-0.012 0.423,-0.037l6.494,-1.063c0.96,-0.157 1.592,-1.086 1.387,-2.036l-1.051,-4.871c-0.114,-0.916 0.298,-1.817 1.066,-2.329c1.022,-0.682 1.377,-2.018 0.828,-3.117l-2.29,-4.58c-0.417,-0.835 -1.267,-1.347 -2.178,-1.347c-0.133,0 -0.267,0.011 -0.401,0.033l-3.909,0.652c-0.133,0.022 -0.267,0.033 -0.401,0.033c-0.134,0 -0.268,-0.011 -0.401,-0.033l-4.799,-0.8c-0.13,-0.022 -0.264,-0.033 -0.398,-0.033z" fill="url(#color-2)"></path><path d="M5.548,16.072l-1.112,2.068c0.335,0.526 0.859,0.904 1.464,1.056l2.704,0.676c0.271,0.068 0.528,0.181 0.76,0.336l1.879,1.252c0.522,0.348 1.157,0.481 1.775,0.372l-4.25,-5.963c-0.817,-1.147 -2.554,-1.037 -3.22,0.203z" fill="url(#color-3)"></path><path d="M21.743,8.416c0.549,1.099 0.195,2.435 -0.828,3.117v0c-0.768,0.512 -1.18,1.414 -1.066,2.329l-1.012,-0.351c-1.709,-0.593 -1.815,-2.971 -0.165,-3.713z" fill="url(#color-4)"></path><path d="M10.149,10.556l2.089,4.647c0.107,0.237 0.31,0.416 0.559,0.492l2.895,0.88c0.809,0.246 1.48,-0.658 1.01,-1.361l-2.873,-4.3c-0.076,-0.114 -0.177,-0.209 -0.296,-0.278l-2.11,-1.228c-0.757,-0.439 -1.633,0.35 -1.274,1.148z" fill="url(#color-5)"></path><path d="M4.216,5.384l0.535,3.212c0.129,0.776 -0.124,1.567 -0.68,2.123l-1.281,1.281l4.312,-1.502c0.904,-0.315 1.183,-1.458 0.524,-2.151c-1.454,-1.529 -3.517,-3.605 -3.41,-2.963z" fill="url(#color-6)"></path><path d="M16.873,2.523l-3.909,0.651c-0.265,0.044 -0.536,0.044 -0.801,0l-4.799,-0.8c-0.269,-0.044 0.959,1.195 2.337,2.521c1.719,1.656 4.511,1.391 5.889,-0.558z" fill="url(#color-7)"></path><path d="M19.264,17.316l-3.286,4.032l3.534,-0.578c0.96,-0.157 1.592,-1.086 1.387,-2.036l-0.233,-1.081c-0.141,-0.656 -0.978,-0.857 -1.402,-0.337z" fill="url(#color-8)"></path></g></g></svg>