<svg xmlns="http://www.w3.org/2000/svg" xmlns:xlink="http://www.w3.org/1999/xlink" viewBox="0,0,256,256" width="48px" height="48px" fill-rule="nonzero"><defs><linearGradient x1="4.249" y1="5.575" x2="18.993" y2="20.319" gradientUnits="userSpaceOnUse" id="color-1"><stop offset="0" stop-color="#84ff8b" stop-opacity="0.6"></stop><stop offset="1" stop-color="#00b30a" stop-opacity="0.30196"></stop></linearGradient><linearGradient x1="4.249" y1="5.575" x2="18.993" y2="20.319" gradientUnits="userSpaceOnUse" id="color-2"><stop offset="0" stop-color="#84ff8b" stop-opacity="0.6"></stop><stop offset="0.493" stop-color="#ffffff" stop-opacity="0"></stop><stop offset="0.997" stop-color="#00b30a" stop-opacity="0.30196"></stop></linearGradient><linearGradient x1="2.384" y1="7.44" x2="9.972" y2="15.028" gradientUnits="userSpaceOnUse" id="color-3"><stop offset="0" stop-color="#ffffff" stop-opacity="0.70196"></stop><stop offset="0.519" stop-color="#ffffff" stop-opacity="0.45098"></stop><stop offset="1" stop-color="#008107" stop-opacity="0.54902"></stop></linearGradient><linearGradient x1="14.549" y1="7.738" x2="18.905" y2="12.095" gradientUnits="userSpaceOnUse" id="color-4"><stop offset="0" stop-color="#ffffff" stop-opacity="0.70196"></stop><stop offset="0.519" stop-color="#ffffff" stop-opacity="0.45098"></stop><stop offset="1" stop-color="#008107" stop-opacity="0.54902"></stop></linearGradient></defs><g fill="none" fill-rule="nonzero" stroke="none" stroke-width="1" stroke-linecap="butt" stroke-linejoin="miter" stroke-miterlimit="10" stroke-dasharray="" stroke-dashoffset="0" font-family="none" font-weight="none" font-size="none" text-anchor="none" style="mix-blend-mode: normal"><g transform="scale(10.66667,10.66667)"><path d="M20.697,8.845c-0.954,0.716 -2.271,1.923 -3.412,3.688c0.166,-2.646 0.462,-5.301 0.664,-6.93c0.061,-0.494 -0.559,-0.767 -0.877,-0.384c-0.764,0.919 -1.814,2.307 -2.762,3.992c-1.137,-2.453 -3.007,-5.1 -6.072,-6.665c-0.412,-0.21 -0.871,0.214 -0.692,0.64c1.132,2.681 1.505,5.204 1.526,7.349c-1.44,-2.057 -3.332,-3.637 -4.62,-4.571c-0.407,-0.296 -0.944,0.132 -0.749,0.596c0.714,1.702 1.757,4.562 2.14,7.404c-0.527,-0.558 -1.135,-1.091 -1.814,-1.49c-0.37,-0.218 -0.832,0.141 -0.723,0.556c0.44,1.683 0.601,3.365 0.66,5.048c0.057,1.626 1.372,2.922 2.998,2.922h10.112c1.602,0 2.914,-1.265 2.995,-2.865c0.221,-4.34 0.911,-7.198 1.403,-8.741c0.149,-0.467 -0.385,-0.843 -0.777,-0.549z" fill="url(#color-1)"></path><path d="M8.018,2.995c2.487,1.273 4.451,3.434 5.837,6.426l0.411,0.886l0.479,-0.851c0.945,-1.679 1.996,-3.057 2.707,-3.914c-0.174,1.4 -0.492,4.165 -0.667,6.96l-0.12,1.909l1.039,-1.606c1.129,-1.747 2.414,-2.9 3.293,-3.562c-0.529,1.661 -1.206,4.547 -1.426,8.867c-0.068,1.341 -1.165,2.391 -2.496,2.391h-10.111c-1.353,0 -2.45,-1.072 -2.499,-2.439c-0.071,-2.026 -0.286,-3.664 -0.69,-5.156c0.566,0.333 1.139,0.805 1.704,1.402l1.066,1.129l-0.207,-1.539c-0.406,-3.013 -1.537,-6.011 -2.179,-7.529c1.285,0.931 3.109,2.46 4.504,4.452l0.926,1.322l-0.016,-1.614c-0.027,-2.601 -0.553,-5.135 -1.555,-7.534M8.012,2.49c-0.332,0 -0.613,0.347 -0.466,0.695c1.132,2.681 1.505,5.204 1.526,7.349c-1.44,-2.057 -3.332,-3.637 -4.62,-4.571c-0.093,-0.068 -0.193,-0.097 -0.29,-0.097c-0.325,0 -0.61,0.337 -0.46,0.694c0.714,1.702 1.757,4.562 2.14,7.404c-0.527,-0.558 -1.135,-1.091 -1.814,-1.49c-0.077,-0.045 -0.158,-0.066 -0.238,-0.066c-0.3,0 -0.571,0.293 -0.485,0.622c0.44,1.683 0.601,3.365 0.66,5.048c0.058,1.626 1.373,2.922 2.999,2.922h10.112c1.602,0 2.914,-1.265 2.995,-2.865c0.221,-4.34 0.911,-7.198 1.403,-8.741c0.112,-0.352 -0.164,-0.653 -0.475,-0.653c-0.101,0 -0.206,0.032 -0.302,0.104c-0.954,0.716 -2.271,1.923 -3.412,3.688c0.166,-2.646 0.462,-5.301 0.664,-6.93c0.041,-0.332 -0.226,-0.564 -0.502,-0.564c-0.134,0 -0.271,0.055 -0.375,0.18c-0.764,0.919 -1.814,2.307 -2.762,3.992c-1.137,-2.453 -3.007,-5.1 -6.072,-6.665c-0.075,-0.039 -0.152,-0.056 -0.226,-0.056z" fill="url(#color-2)"></path><path d="M5.842,13.964c1.352,1.431 2.158,3.036 2.158,3.036c0,0 1.111,-2.615 1.072,-6.466c-1.44,-2.057 -3.332,-3.637 -4.62,-4.571c-0.407,-0.295 -0.944,0.133 -0.749,0.597c0.714,1.702 1.756,4.563 2.139,7.404z" fill="url(#color-3)"></path><path d="M16,15c0.371,-0.927 0.814,-1.74 1.285,-2.467c0.166,-2.646 0.462,-5.301 0.664,-6.93c0.061,-0.494 -0.559,-0.767 -0.877,-0.384c-0.764,0.919 -1.814,2.307 -2.762,3.992c1.411,3.044 1.69,5.789 1.69,5.789z" fill="url(#color-4)"></path></g></g></svg>