<svg xmlns="http://www.w3.org/2000/svg" xmlns:xlink="http://www.w3.org/1999/xlink" viewBox="0,0,256,256" width="48px" height="48px" fill-rule="nonzero"><defs><linearGradient x1="4.864" y1="4.948" x2="8.958" y2="9.042" gradientUnits="userSpaceOnUse" id="color-1"><stop offset="0" stop-color="#ffffff" stop-opacity="0.6"></stop><stop offset="1" stop-color="#ffffff" stop-opacity="0.30196"></stop></linearGradient><linearGradient x1="4.864" y1="4.948" x2="8.958" y2="9.042" gradientUnits="userSpaceOnUse" id="color-2"><stop offset="0" stop-color="#ffffff" stop-opacity="0.6"></stop><stop offset="0.493" stop-color="#ffffff" stop-opacity="0"></stop><stop offset="0.997" stop-color="#ffffff" stop-opacity="0.30196"></stop></linearGradient><linearGradient x1="10.162" y1="9.673" x2="13.838" y2="13.349" gradientUnits="userSpaceOnUse" id="color-3"><stop offset="0" stop-color="#ffffff" stop-opacity="0.6"></stop><stop offset="1" stop-color="#ffffff" stop-opacity="0.30196"></stop></linearGradient><linearGradient x1="10.162" y1="9.673" x2="13.838" y2="13.349" gradientUnits="userSpaceOnUse" id="color-4"><stop offset="0" stop-color="#ffffff" stop-opacity="0.6"></stop><stop offset="0.493" stop-color="#ffffff" stop-opacity="0"></stop><stop offset="0.997" stop-color="#ffffff" stop-opacity="0.30196"></stop></linearGradient><linearGradient x1="11.651" y1="18.162" x2="15.327" y2="21.838" gradientUnits="userSpaceOnUse" id="color-5"><stop offset="0" stop-color="#ffffff" stop-opacity="0.6"></stop><stop offset="1" stop-color="#ffffff" stop-opacity="0.30196"></stop></linearGradient><linearGradient x1="11.651" y1="18.162" x2="15.327" y2="21.838" gradientUnits="userSpaceOnUse" id="color-6"><stop offset="0" stop-color="#ffffff" stop-opacity="0.6"></stop><stop offset="0.493" stop-color="#ffffff" stop-opacity="0"></stop><stop offset="0.997" stop-color="#ffffff" stop-opacity="0.30196"></stop></linearGradient><linearGradient x1="3.864" y1="13.948" x2="7.958" y2="18.042" gradientUnits="userSpaceOnUse" id="color-7"><stop offset="0" stop-color="#ffffff" stop-opacity="0.6"></stop><stop offset="1" stop-color="#ffffff" stop-opacity="0.30196"></stop></linearGradient><linearGradient x1="3.864" y1="13.948" x2="7.958" y2="18.042" gradientUnits="userSpaceOnUse" id="color-8"><stop offset="0" stop-color="#ffffff" stop-opacity="0.6"></stop><stop offset="0.493" stop-color="#ffffff" stop-opacity="0"></stop><stop offset="0.997" stop-color="#ffffff" stop-opacity="0.30196"></stop></linearGradient><linearGradient x1="16.041" y1="3.959" x2="20.135" y2="8.053" gradientUnits="userSpaceOnUse" id="color-9"><stop offset="0" stop-color="#ffffff" stop-opacity="0.6"></stop><stop offset="1" stop-color="#ffffff" stop-opacity="0.30196"></stop></linearGradient><linearGradient x1="16.041" y1="3.959" x2="20.135" y2="8.053" gradientUnits="userSpaceOnUse" id="color-10"><stop offset="0" stop-color="#ffffff" stop-opacity="0.6"></stop><stop offset="0.493" stop-color="#ffffff" stop-opacity="0"></stop><stop offset="0.997" stop-color="#ffffff" stop-opacity="0.30196"></stop></linearGradient><linearGradient x1="15.865" y1="11.947" x2="19.959" y2="16.041" gradientUnits="userSpaceOnUse" id="color-11"><stop offset="0" stop-color="#ffffff" stop-opacity="0.6"></stop><stop offset="1" stop-color="#ffffff" stop-opacity="0.30196"></stop></linearGradient><linearGradient x1="15.865" y1="11.947" x2="19.959" y2="16.041" gradientUnits="userSpaceOnUse" id="color-12"><stop offset="0" stop-color="#ffffff" stop-opacity="0.6"></stop><stop offset="0.493" stop-color="#ffffff" stop-opacity="0"></stop><stop offset="0.997" stop-color="#ffffff" stop-opacity="0.30196"></stop></linearGradient><linearGradient x1="6.782" y1="5.537" x2="9.623" y2="8.377" gradientUnits="userSpaceOnUse" id="color-13"><stop offset="0" stop-color="#ffffff" stop-opacity="0.70196"></stop><stop offset="0.519" stop-color="#ffffff" stop-opacity="0.45098"></stop><stop offset="1" stop-color="#ffffff" stop-opacity="0.54902"></stop></linearGradient><linearGradient x1="5.782" y1="14.537" x2="8.623" y2="17.378" gradientUnits="userSpaceOnUse" id="color-14"><stop offset="0" stop-color="#ffffff" stop-opacity="0.70196"></stop><stop offset="0.519" stop-color="#ffffff" stop-opacity="0.45098"></stop><stop offset="1" stop-color="#ffffff" stop-opacity="0.54902"></stop></linearGradient><linearGradient x1="15.38" y1="4.62" x2="18.115" y2="7.355" gradientUnits="userSpaceOnUse" id="color-15"><stop offset="0" stop-color="#ffffff" stop-opacity="0.70196"></stop><stop offset="0.519" stop-color="#ffffff" stop-opacity="0.45098"></stop><stop offset="1" stop-color="#ffffff" stop-opacity="0.54902"></stop></linearGradient><linearGradient x1="17.902" y1="12.578" x2="20.663" y2="15.338" gradientUnits="userSpaceOnUse" id="color-16"><stop offset="0" stop-color="#ffffff" stop-opacity="0.70196"></stop><stop offset="0.519" stop-color="#ffffff" stop-opacity="0.45098"></stop><stop offset="1" stop-color="#ffffff" stop-opacity="0.54902"></stop></linearGradient></defs><g fill="#ffe3bf" fill-rule="nonzero" stroke="none" stroke-width="1" stroke-linecap="butt" stroke-linejoin="miter" stroke-miterlimit="10" stroke-dasharray="" stroke-dashoffset="0" font-family="none" font-weight="none" font-size="none" text-anchor="none" style="mix-blend-mode: normal"><path d="M0,256v-256h256v256z" id="shape"></path></g><g fill="none" fill-rule="nonzero" stroke="none" stroke-width="1" stroke-linecap="butt" stroke-linejoin="miter" stroke-miterlimit="10" stroke-dasharray="" stroke-dashoffset="0" font-family="none" font-weight="none" font-size="none" text-anchor="none" style="mix-blend-mode: normal"><g transform="scale(10.66667,10.66667)"><path d="M6,10c0.49,0 0.94,-0.03 1.28,-0.21c0.54,0.03 1.13,-0.2 1.72,-0.79c1.17,-1.17 1.71,-3.29 1,-4c-0.52,-0.52 -1.79,-0.37 -2.89,0.21c-0.38,-0.7 -0.81,-1.21 -1.11,-1.21c-0.67,0 -2,2.54 -2,4.2c0,1.66 0.89,1.8 2,1.8z" fill="url(#color-1)"></path><path d="M5.997,4.526c0.115,0.089 0.363,0.35 0.674,0.923l0.236,0.434l0.437,-0.23c0.559,-0.295 1.185,-0.471 1.674,-0.471c0.291,0 0.52,0.063 0.629,0.172c0.164,0.164 0.251,0.646 0.073,1.351c-0.182,0.726 -0.584,1.452 -1.074,1.941c-0.428,0.429 -0.857,0.647 -1.273,0.647l-0.065,-0.002l-0.139,-0.008l-0.123,0.065c-0.252,0.134 -0.652,0.152 -1.046,0.152c-1.089,0 -1.5,-0.112 -1.5,-1.3c0,-1.44 1.053,-3.359 1.497,-3.674M6,4c-0.67,0 -2,2.54 -2,4.2c0,1.66 0.89,1.8 2,1.8c0.49,0 0.94,-0.03 1.28,-0.21c0.031,0.002 0.062,0.003 0.093,0.003c0.514,0 1.071,-0.237 1.627,-0.793c1.17,-1.17 1.71,-3.29 1,-4c-0.218,-0.218 -0.568,-0.318 -0.983,-0.318c-0.573,0 -1.269,0.192 -1.907,0.528c-0.38,-0.7 -0.81,-1.21 -1.11,-1.21z" fill="url(#color-2)"></path><path d="M12,15c0.667,0 2,-2.543 2,-4.2c0,-1.657 -0.895,-1.8 -2,-1.8c-1.105,0 -2,0.143 -2,1.8c0,1.657 1.333,4.2 2,4.2z" fill="url(#color-3)"></path><path d="M12,9.5c1.066,0 1.5,0.118 1.5,1.3c0,1.439 -1.057,3.364 -1.5,3.676c-0.443,-0.312 -1.5,-2.237 -1.5,-3.676c0,-1.182 0.434,-1.3 1.5,-1.3M12,9c-1.105,0 -2,0.143 -2,1.8c0,1.657 1.333,4.2 2,4.2c0.667,0 2,-2.543 2,-4.2c0,-1.657 -0.895,-1.8 -2,-1.8z" fill="url(#color-4)"></path><path d="M14.2,18c-1.657,0 -4.2,1.333 -4.2,2c0,0.667 2.543,2 4.2,2c1.657,0 1.8,-0.895 1.8,-2c0,-1.105 -0.143,-2 -1.8,-2z" fill="url(#color-5)"></path><path d="M14.2,18.5c1.182,0 1.3,0.434 1.3,1.5c0,1.066 -0.118,1.5 -1.3,1.5c-1.439,0 -3.364,-1.057 -3.676,-1.5c0.312,-0.443 2.237,-1.5 3.676,-1.5M14.2,18c-1.657,0 -4.2,1.333 -4.2,2c0,0.667 2.543,2 4.2,2c1.657,0 1.8,-0.895 1.8,-2c0,-1.105 -0.143,-2 -1.8,-2z" fill="url(#color-6)"></path><g><path d="M6.11,14.21c-0.38,-0.7 -0.81,-1.21 -1.11,-1.21c-0.67,0 -2,2.54 -2,4.2c0,1.66 0.89,1.8 2,1.8c0.49,0 0.94,-0.03 1.28,-0.21c0.54,0.03 1.13,-0.2 1.72,-0.79c1.17,-1.17 1.71,-3.29 1,-4c-0.52,-0.52 -1.79,-0.37 -2.89,0.21z" fill="url(#color-7)"></path><path d="M4.997,13.526c0.115,0.089 0.363,0.35 0.674,0.923l0.236,0.434l0.437,-0.23c0.559,-0.295 1.185,-0.471 1.674,-0.471c0.291,0 0.52,0.063 0.629,0.172c0.164,0.164 0.251,0.646 0.073,1.351c-0.183,0.726 -0.584,1.451 -1.074,1.941c-0.429,0.429 -0.857,0.646 -1.273,0.646l-0.065,-0.002l-0.139,-0.008l-0.123,0.065c-0.252,0.135 -0.652,0.153 -1.046,0.153c-1.089,0 -1.5,-0.112 -1.5,-1.3c0,-1.44 1.053,-3.359 1.497,-3.674M5,13c-0.67,0 -2,2.54 -2,4.2c0,1.66 0.89,1.8 2,1.8c0.49,0 0.94,-0.03 1.28,-0.21c0.031,0.002 0.062,0.003 0.093,0.003c0.514,0 1.071,-0.237 1.627,-0.793c1.17,-1.17 1.71,-3.29 1,-4c-0.218,-0.218 -0.568,-0.318 -0.983,-0.318c-0.573,0 -1.269,0.192 -1.907,0.528c-0.38,-0.7 -0.81,-1.21 -1.11,-1.21z" fill="url(#color-8)"></path></g><g><path d="M17.82,7.65c0.39,0.78 0.86,1.35 1.18,1.35c0.67,0 2,-2.54 2,-4.2c0,-1.66 -0.9,-1.8 -2,-1.8c-0.48,0 -0.93,0.03 -1.27,0.21c-0.54,-0.03 -1.13,0.19 -1.73,0.79c-1.17,1.17 -1.71,3.29 -1,4c0.49,0.49 1.72,0.24 2.82,-0.35z" fill="url(#color-9)"></path><path d="M19,3.5c1.066,0 1.5,0.118 1.5,1.3c0,1.442 -1.056,3.365 -1.499,3.676c-0.136,-0.102 -0.421,-0.424 -0.734,-1.049l-0.23,-0.46l-0.453,0.243c-0.643,0.345 -1.311,0.551 -1.787,0.551c-0.21,0 -0.371,-0.041 -0.444,-0.114c-0.421,-0.421 -0.086,-2.207 1,-3.293c0.429,-0.429 0.86,-0.646 1.28,-0.646l0.068,0.002l0.139,0.008l0.123,-0.065c0.254,-0.135 0.667,-0.153 1.037,-0.153M19,3c-0.48,0 -0.93,0.03 -1.27,0.21c-0.032,-0.002 -0.064,-0.003 -0.096,-0.003c-0.514,0 -1.069,0.228 -1.634,0.793c-1.17,1.17 -1.71,3.29 -1,4c0.18,0.18 0.46,0.26 0.797,0.26c0.58,0 1.327,-0.237 2.023,-0.61c0.39,0.78 0.86,1.35 1.18,1.35c0.67,0 2,-2.54 2,-4.2c0,-1.66 -0.9,-1.8 -2,-1.8z" fill="url(#color-10)"></path></g><g><path d="M21,12c-0.51,-0.51 -1.75,-0.29 -2.84,0.32c-0.38,-0.76 -0.84,-1.32 -1.16,-1.32c-0.67,0 -2,2.54 -2,4.2c0,1.66 0.9,1.8 2,1.8c0.54,0 1.02,-0.04 1.38,-0.27c0.5,0.04 1.05,-0.16 1.62,-0.73c1.17,-1.17 1.71,-3.29 1,-4z" fill="url(#color-11)"></path><path d="M16.999,11.524c0.133,0.099 0.41,0.412 0.713,1.02l0.234,0.469l0.457,-0.256c0.604,-0.338 1.253,-0.54 1.736,-0.54c0.238,0 0.417,0.049 0.506,0.137c0.165,0.165 0.251,0.646 0.074,1.352c-0.183,0.726 -0.584,1.451 -1.074,1.941c-0.39,0.39 -0.775,0.588 -1.143,0.588c-0.028,0 -0.056,-0.001 -0.083,-0.003l-0.167,-0.013l-0.142,0.09c-0.262,0.168 -0.689,0.191 -1.11,0.191c-1.066,0 -1.5,-0.118 -1.5,-1.3c0,-1.442 1.057,-3.366 1.499,-3.676M17,11c-0.67,0 -2,2.54 -2,4.2c0,1.66 0.9,1.8 2,1.8c0.54,0 1.02,-0.04 1.38,-0.27c0.041,0.003 0.082,0.005 0.123,0.005c0.467,0 0.973,-0.211 1.497,-0.735c1.17,-1.17 1.71,-3.29 1,-4c-0.196,-0.196 -0.499,-0.284 -0.859,-0.284c-0.58,0 -1.309,0.228 -1.981,0.604c-0.38,-0.76 -0.84,-1.32 -1.16,-1.32z" fill="url(#color-12)"></path></g><path d="M9,9c-0.59,0.59 -1.18,0.82 -1.72,0.79c0.44,-0.2 0.72,-0.66 0.72,-1.59c0,-0.92 -0.41,-2.11 -0.89,-2.99c1.1,-0.58 2.37,-0.73 2.89,-0.21c0.71,0.71 0.17,2.83 -1,4z" fill="url(#color-13)"></path><path d="M8,18c-0.59,0.59 -1.18,0.82 -1.72,0.79c0.44,-0.2 0.72,-0.66 0.72,-1.59c0,-0.92 -0.41,-2.11 -0.89,-2.99c1.1,-0.58 2.37,-0.73 2.89,-0.21c0.71,0.71 0.17,2.83 -1,4z" fill="url(#color-14)"></path><path d="M17.82,7.65c-1.1,0.59 -2.33,0.84 -2.82,0.35c-0.71,-0.71 -0.17,-2.83 1,-4c0.6,-0.6 1.19,-0.82 1.73,-0.79c-0.45,0.21 -0.73,0.66 -0.73,1.59c0,0.87 0.37,1.99 0.82,2.85z" fill="url(#color-15)"></path><path d="M20,16c-0.57,0.57 -1.12,0.77 -1.62,0.73c0.38,-0.23 0.62,-0.68 0.62,-1.53c0,-0.88 -0.38,-2.02 -0.84,-2.88c1.09,-0.61 2.33,-0.83 2.84,-0.32c0.71,0.71 0.17,2.83 -1,4z" fill="url(#color-16)"></path></g></g></svg>