<svg xmlns="http://www.w3.org/2000/svg" xmlns:xlink="http://www.w3.org/1999/xlink" viewBox="0,0,256,256" width="48px" height="48px" fill-rule="nonzero"><defs><linearGradient x1="5.801" y1="5.199" x2="19.371" y2="18.768" gradientUnits="userSpaceOnUse" id="color-1"><stop offset="0" stop-color="#ffffff" stop-opacity="0.6"></stop><stop offset="1" stop-color="#ffffff" stop-opacity="0.3"></stop></linearGradient><linearGradient x1="5.801" y1="5.199" x2="19.371" y2="18.768" gradientUnits="userSpaceOnUse" id="color-2"><stop offset="0" stop-color="#ffffff" stop-opacity="0.6"></stop><stop offset="0.493" stop-color="#ffffff" stop-opacity="0"></stop><stop offset="0.997" stop-color="#ffffff" stop-opacity="0.3"></stop></linearGradient><linearGradient x1="7.129" y1="6.669" x2="15.226" y2="14.767" gradientUnits="userSpaceOnUse" id="color-3"><stop offset="0" stop-color="#ffffff" stop-opacity="0.6"></stop><stop offset="1" stop-color="#ffffff" stop-opacity="0.3"></stop></linearGradient></defs><g fill="#5e5e5e" fill-rule="nonzero" stroke="none" stroke-width="1" stroke-linecap="butt" stroke-linejoin="miter" stroke-miterlimit="10" stroke-dasharray="" stroke-dashoffset="0" font-family="none" font-weight="none" font-size="none" text-anchor="none" style="mix-blend-mode: normal"><path d="M0,256v-256h256v256z" id="shape"></path></g><g fill="none" fill-rule="nonzero" stroke="none" stroke-width="1" stroke-linecap="butt" stroke-linejoin="miter" stroke-miterlimit="10" stroke-dasharray="" stroke-dashoffset="0" font-family="none" font-weight="none" font-size="none" text-anchor="none" style="mix-blend-mode: normal"><g transform="scale(10.66667,10.66667)"><path d="M4.9,6.1l2.2,-2.2c0.6,-0.6 1.3,-0.9 2.1,-0.9h1.9c0.5,0 1,-0.2 1.4,-0.6l0.3,-0.3c0.7,-0.7 1.7,-1 2.7,-0.8l2.6,0.5c0.5,0.1 0.8,0.5 0.8,1v0.4v1.1c0,0.4 0.2,0.8 0.4,1.2c0.5,0.5 0.7,1.1 0.7,1.7v3c0,0.5 0.1,0.9 0.3,1.3l0.4,0.7c0.2,0.4 0.3,0.9 0.3,1.3v2.5c0,0.6 -0.3,1.2 -0.7,1.5l-3.4,3.8c-0.5,0.4 -1.2,0.7 -1.9,0.7h-5.3c-0.5,0 -0.9,-0.1 -1.3,-0.3l-3.7,-1.9c-1,-0.5 -1.7,-1.5 -1.7,-2.7v-4.4c0,-0.5 0.1,-0.9 0.3,-1.3l0.5,-0.9c0.1,-0.4 0.2,-0.7 0.2,-1v-1.3c0,-0.8 0.3,-1.5 0.9,-2.1z" fill="url(#color-1)"></path><path d="M15,1.8v0c0.2,0 0.3,0 0.5,0l2.6,0.5c0.2,0 0.4,0.3 0.4,0.5v0.4v1.1c0,0.5 0.2,1 0.5,1.5c0.3,0.5 0.5,1 0.5,1.4v3c0,0.5 0.1,1.1 0.4,1.6l0.4,0.7c0.2,0.3 0.3,0.7 0.3,1.1v2.4c0,0.4 -0.2,0.9 -0.5,1.2v0v0l-3.4,3.7c-0.4,0.4 -1,0.6 -1.6,0.6h-5.4c-0.4,0 -0.8,-0.1 -1.1,-0.3l-3.7,-1.9c-0.9,-0.3 -1.4,-1.2 -1.4,-2.2v-4.4c0,-0.4 0.1,-0.8 0.3,-1.1l0.5,-0.9c0.2,-0.3 0.3,-0.7 0.3,-1.1v-1.4c0,-0.7 0.3,-1.3 0.7,-1.8l2.2,-2.2c0.5,-0.5 1.1,-0.7 1.8,-0.7h1.9c0.7,0 1.3,-0.3 1.8,-0.7l0.3,-0.3c0.4,-0.5 1,-0.7 1.7,-0.7M15,1.3c-0.8,0 -1.6,0.3 -2.1,0.9l-0.3,0.3c-0.4,0.3 -0.9,0.5 -1.4,0.5h-2c-0.8,0 -1.5,0.3 -2.1,0.9l-2.2,2.2c-0.6,0.6 -0.9,1.3 -0.9,2.1v1.3c0,0.3 -0.1,0.6 -0.2,0.9l-0.5,0.9c-0.2,0.5 -0.3,0.9 -0.3,1.4v4.4c0,1.1 0.6,2.2 1.7,2.7l3.7,1.9c0.4,0.2 0.8,0.3 1.3,0.3h5.2c0.7,0 1.4,-0.2 1.9,-0.7l3.4,-3.8c0.5,-0.4 0.7,-0.9 0.7,-1.5v-2.4c0,-0.5 -0.1,-0.9 -0.3,-1.3l-0.4,-0.7c-0.2,-0.4 -0.3,-0.9 -0.3,-1.3v-3c0,-0.6 -0.2,-1.2 -0.6,-1.7c-0.1,-0.5 -0.3,-0.9 -0.3,-1.3v-1.1v-0.4c0,-0.5 -0.3,-0.9 -0.8,-1l-2.6,-0.5c-0.2,0 -0.4,0 -0.6,0z" fill="url(#color-2)"></path><g fill="url(#color-3)"><path d="M17.2,6.6v-2.3c0,-0.4 -0.3,-0.8 -0.7,-1l-0.8,-0.3c-0.3,-0.1 -0.7,0 -1,0.2l-1.2,1.1c-0.4,0.3 -0.9,0.5 -1.4,0.5h-2.4c-0.5,0 -1.1,0.2 -1.4,0.6l-1.7,1.8c-0.4,0.4 -0.6,0.9 -0.6,1.5v1.9l-0.7,1.4c-0.2,0.3 -0.3,0.8 -0.3,1.3v3.7c0,0.6 0.6,1.1 1.2,1l3.2,-0.6c0.4,-0.1 0.9,-0.3 1.2,-0.6l2.5,-1.9l2.1,-0.5c0.6,-0.1 1.1,-0.5 1.3,-1.1l1.2,-2.5c0.2,-0.5 0.3,-1 0.1,-1.6l-0.6,-1.9c0,-0.2 -0.1,-0.5 0,-0.7zM10,13l-2,-1l1,-3l2,2zM16,10l-2,2l-2,-3l1,-2l2,1z"></path></g></g></g></svg>