<svg xmlns="http://www.w3.org/2000/svg" xmlns:xlink="http://www.w3.org/1999/xlink" viewBox="0,0,256,256" width="48px" height="48px" fill-rule="nonzero"><defs><linearGradient x1="2.793" y1="2.207" x2="21.207" y2="20.621" gradientUnits="userSpaceOnUse" id="color-1"><stop offset="0" stop-color="#00acb9" stop-opacity="0.6"></stop><stop offset="1" stop-color="#00acb9" stop-opacity="0.6"></stop></linearGradient><linearGradient x1="2.793" y1="2.207" x2="21.207" y2="20.621" gradientUnits="userSpaceOnUse" id="color-2"><stop offset="0" stop-color="#00acb9" stop-opacity="0.6"></stop><stop offset="0.493" stop-color="#ffffff" stop-opacity="0"></stop><stop offset="0.997" stop-color="#00acb9" stop-opacity="0.6"></stop></linearGradient><linearGradient x1="6" y1="-1" x2="18" y2="11" gradientUnits="userSpaceOnUse" id="color-3"><stop offset="0" stop-color="#ffffff" stop-opacity="0.70196"></stop><stop offset="0.519" stop-color="#ffffff" stop-opacity="0.45098"></stop><stop offset="1" stop-color="#ffffff" stop-opacity="0.70196"></stop></linearGradient></defs><g transform="translate(-33.28,-33.28) scale(1.26,1.26)"><g fill="none" fill-rule="nonzero" stroke="none" stroke-width="1" stroke-linecap="butt" stroke-linejoin="miter" stroke-miterlimit="10" stroke-dasharray="" stroke-dashoffset="0" font-family="none" font-weight="none" font-size="none" text-anchor="none" style="mix-blend-mode: normal"><g transform="translate(0,21.33333) scale(10.66667,10.66667)"><path d="M17,4c-2,0 -3,-1 -5,-1c-2,0 -3,1 -5,1c-2,0 -3,-1 -5,-1v16c0,1.104 0.896,2 2,2h16c1.104,0 2,-0.896 2,-2v-16c-2,0 -3,1 -5,1z" fill="url(#color-1)"></path><path d="M12,3.5c0.919,0 1.61,0.23 2.342,0.474c0.775,0.259 1.577,0.526 2.658,0.526c1.081,0 1.883,-0.267 2.658,-0.526c0.593,-0.198 1.159,-0.386 1.842,-0.451v15.477c0,0.827 -0.673,1.5 -1.5,1.5h-16c-0.827,0 -1.5,-0.673 -1.5,-1.5v-15.477c0.682,0.064 1.249,0.253 1.842,0.451c0.775,0.259 1.577,0.526 2.658,0.526c1.081,0 1.883,-0.267 2.658,-0.526c0.732,-0.244 1.423,-0.474 2.342,-0.474M22,3c-2,0 -3,1 -5,1c-2,0 -3,-1 -5,-1c-2,0 -3,1 -5,1c-2,0 -3,-1 -5,-1v16c0,1.104 0.896,2 2,2h16c1.104,0 2,-0.896 2,-2v-16z" fill="url(#color-2)"></path><path d="M17,4c-2,0 -3,-1 -5,-1c-2,0 -3,1 -5,1c-2,0 -3,-1 -5,-1v4c2,0 3,1 5,1c2,0 3,-1 5,-1c2,0 3,1 5,1c2,0 3,-1 5,-1v-4c-2,0 -3,1 -5,1z" fill="url(#color-3)"></path></g></g></g></svg>